<svg width="23" height="29" viewBox="0 0 23 29" fill="none" xmlns="http://www.w3.org/2000/svg">
<path d="M11.8615 12.4376C14.8314 12.4376 17.2391 10.0339 17.2391 7.0687C17.2391 4.10352 14.8314 1.69977 11.8615 1.69977C8.89152 1.69977 6.48389 4.10352 6.48389 7.0687C6.48389 10.0339 8.89152 12.4376 11.8615 12.4376Z" stroke="#6F6E7C" stroke-width="1.8" stroke-miterlimit="10"/>
<path d="M2.97128 26.419C2.5657 26.2787 2.22064 26.0037 1.99374 25.64C1.76685 25.2762 1.67188 24.8457 1.7247 24.4204C1.99505 21.926 3.17898 19.6193 5.04908 17.9434C6.91919 16.2674 9.34358 15.3404 11.8566 15.3404C14.3696 15.3404 16.794 16.2674 18.6641 17.9434C20.5342 19.6193 21.7181 21.926 21.9885 24.4204C22.0353 24.8402 21.9385 25.2635 21.7138 25.6214C21.4892 25.9793 21.1498 26.2508 20.751 26.3918C19.468 26.8278 16.9203 27.3002 11.8611 27.3002C6.80202 27.3002 4.25426 26.8551 2.97128 26.419Z" stroke="#6F6E7C" stroke-width="1.8" stroke-miterlimit="10"/>
</svg>
